<?xml version="1.0" standalone="no"?><!DOCTYPE svg PUBLIC "-//W3C//DTD SVG 1.1//EN" "http://www.w3.org/Graphics/SVG/1.1/DTD/svg11.dtd"><svg t="1770651184398" class="icon" viewBox="0 0 1024 1024" version="1.1" xmlns="http://www.w3.org/2000/svg" p-id="5183" xmlns:xlink="http://www.w3.org/1999/xlink" width="200" height="200"><path d="M840.41 50.38H300.24c-26.43 0-48.06 21.63-48.06 48.06v23.34h502.4c26.43 0 48.06 21.63 48.06 48.06V895h37.76c26.43 0 48.06-21.63 48.06-48.06V98.43c0-26.43-21.62-48.05-48.05-48.05z" fill="#1DCA5D" p-id="5184"></path><path d="M858.46 926h-60.1c-4.42 0-8-3.58-8-8V163.5c0-23.16-18.84-42-42-42H225.64c-4.42 0-8-3.58-8-8V58c0-31.98 26.02-58 58-58h582.82c31.98 0 58 26.02 58 58v810c0 31.98-26.02 58-58 58z m-52.1-16h52.1c23.16 0 42-18.84 42-42V58c0-23.16-18.84-42-42-42H275.64c-23.16 0-42 18.84-42 42v47.5h514.72c31.98 0 58 26.02 58 58V910z" fill="" p-id="5185"></path><path d="M748.36 1008.52H220.29c-27.5 0-50-22.5-50-50V228.97c0-27.5 22.5-50 50-50h528.07c27.5 0 50 22.5 50 50v729.55c0 27.5-22.5 50-50 50z" fill="#FFD632" p-id="5186"></path><path d="M771.93 184.92v737.1c0 27.5-22.5 42.52-50 42.52H193.86a49.57 49.57 0 0 1-23.57-5.95c0.04 27.47 22.52 49.93 50 49.93h528.07c27.5 0 50-22.5 50-50V228.97c0-18.99-10.73-35.59-26.43-44.05z" fill="#FDA738" p-id="5187"></path><path d="M669.59 917.57h-18v-10h18v10z m-36 0h-18v-10h18v10z m-36 0h-18v-10h18v10z m-36 0h-18v-10h18v10z m-36 0h-18v-10h18v10z m-36 0h-18v-10h18v10z m-36 0h-18v-10h18v10z m-36 0h-18v-10h18v10z m-36 0h-18v-10h18v10z m-36 0h-18v-10h18v10z m-36 0h-18v-10h18v10z m-36 0h-18v-10h18v10z m397.1-0.01l-0.2-10c5.44-0.11 10.74-1.19 15.77-3.21l3.73 9.28a54.493 54.493 0 0 1-19.3 3.93z m-433.91-0.8a54.443 54.443 0 0 1-18.48-6.84l5.1-8.6c4.68 2.78 9.76 4.66 15.1 5.59l-1.72 9.85z m469.86-13.62l-6.75-7.38c4.02-3.68 7.32-7.99 9.79-12.82l8.9 4.56a55.317 55.317 0 0 1-11.94 15.64z m-503.22-6.09a54.947 54.947 0 0 1-9.45-17.27l9.49-3.15c1.7 5.13 4.31 9.89 7.73 14.13l-7.77 6.29z m520.84-28.42l-9.94-1.1c0.18-1.63 0.27-3.3 0.27-4.96v-12.48h10v12.48c0 2.02-0.11 4.06-0.33 6.06z m-523.06-8.15h-10v-18h10v18z m523.39-28.39h-10v-18h10v18z m-523.39-7.61h-10v-18h10v18z m523.39-28.39h-10v-18h10v18z m-523.39-7.61h-10v-18h10v18z m523.39-28.39h-10v-18h10v18z m-523.39-7.61h-10v-18h10v18z m523.39-28.39h-10v-18h10v18z m-523.39-7.61h-10v-18h10v18z m523.39-28.39h-10v-18h10v18z m-523.39-7.61h-10v-18h10v18z m523.39-28.39h-10v-18h10v18z m-523.39-7.61h-10v-18h10v18z m523.39-28.39h-10v-18h10v18z m-523.39-7.61h-10v-18h10v18z m523.39-28.39h-10v-18h10v18z m-523.39-7.61h-10v-18h10v18z m523.39-28.39h-10v-18h10v18z m-523.39-7.61h-10v-18h10v18z m523.39-28.39h-10v-18h10v18z m-523.39-7.61h-10v-18h10v18z m523.39-28.39h-10v-18h10v18z m-523.39-7.61h-10v-18h10v18z m523.39-28.39h-10v-18h10v18z m-523.39-7.61h-10v-18h10v18z m523.39-28.39h-10v-18h10v18z m-523.39-7.61h-10v-18h10v18z m523.39-28.39h-10v-18h10v18z m-523.39-7.61h-10v-18h10v18z m523.39-28.39h-10v-18h10v18z m-523.39-7.61h-10v-18h10v18z m523.39-28.39h-10v-18h10v18z m-523.39-7.61h-10v-18h10v18z m512.9-27.62c-0.8-5.35-2.55-10.48-5.22-15.22l8.72-4.89a54.15 54.15 0 0 1 6.38 18.64l-9.88 1.47z m-510.88-6.66l-9.55-2.98a54.775 54.775 0 0 1 9.14-17.44l7.89 6.15a45.063 45.063 0 0 0-7.48 14.27z m495.4-21.01a44.968 44.968 0 0 0-13.95-8.08l3.38-9.41a54.813 54.813 0 0 1 17.04 9.86l-6.47 7.63z m-475.91-4.02l-5.25-8.51c5.67-3.5 11.84-5.91 18.35-7.16l1.9 9.82a44.423 44.423 0 0 0-15 5.85z m445.99-6.67h-18v-10h18v10z m-36 0h-18v-10h18v10z m-36 0h-18v-10h18v10z m-36 0h-18v-10h18v10z m-36 0h-18v-10h18v10z m-36 0h-18v-10h18v10z m-36 0h-18v-10h18v10z m-36 0h-18v-10h18v10z m-36 0h-18v-10h18v10z m-36 0h-18v-10h18v10z m-36 0h-18v-10h18v10z m-36 0h-18v-10h18v10z" fill="#FFFFFF" p-id="5188"></path><path d="M115.54 290.83v-36" fill="#FFD632" p-id="5189"></path><path d="M115.54 298.83c-4.42 0-8-3.58-8-8v-36c0-4.42 3.58-8 8-8s8 3.58 8 8v36c0 4.42-3.58 8-8 8z" fill="" p-id="5190"></path><path d="M475.13 147.5H375.04" fill="#FFD632" p-id="5191"></path><path d="M475.13 155.5H375.04c-4.42 0-8-3.58-8-8s3.58-8 8-8h100.09c4.42 0 8 3.58 8 8s-3.58 8-8 8z" fill="" p-id="5192"></path><path d="M524.24 147.5h-22.41" fill="#FFD632" p-id="5193"></path><path d="M524.24 155.5h-22.41c-4.42 0-8-3.58-8-8s3.58-8 8-8h22.41c4.42 0 8 3.58 8 8s-3.58 8-8 8z" fill="" p-id="5194"></path><path d="M748.84 1024H166.02c-31.98 0-58-26.02-58-58V326.98c0-4.42 3.58-8 8-8s8 3.58 8 8V966c0 23.16 18.84 42 42 42h582.82c23.16 0 42-18.84 42-42V163.48c0-23.16-18.84-42-42-42H294.65c-4.42 0-8-3.58-8-8s3.58-8 8-8h454.19c31.98 0 58 26.02 58 58V966c0 31.98-26.02 58-58 58zM115.54 224.5c-4.42 0-8-3.58-8-8V167c0-31.98 26.02-58 58-58h23.93c4.42 0 8 3.58 8 8s-3.58 8-8 8h-23.93c-23.16 0-42 18.84-42 42v49.5c0 4.42-3.58 8-8 8z" fill="" p-id="5195"></path><path d="M629.9 419.22h-344c-17.6 0-32-14.4-32-32v-56.38c0-17.6 14.4-32 32-32h344c17.6 0 32 14.4 32 32v56.38c0 17.6-14.4 32-32 32z" fill="#1DCA5D" p-id="5196"></path><path d="M253.89 333c-4.42 0-8-3.58-8-8v-20.31c0-22.06 17.94-40 40-40h56.56c4.42 0 8 3.58 8 8s-3.58 8-8 8h-56.56c-13.23 0-24 10.77-24 24V325c0 4.42-3.58 8-8 8zM629.9 427.22H285.89c-22.06 0-40-17.94-40-40v-41.27c0-4.42 3.58-8 8-8s8 3.58 8 8v41.27c0 13.23 10.77 24 24 24H629.9c13.23 0 24-10.77 24-24v-82.53c0-13.23-10.77-24-24-24H380.95c-4.42 0-8-3.58-8-8s3.58-8 8-8H629.9c22.06 0 40 17.94 40 40v82.53c0 22.06-17.95 40-40 40z" fill="" p-id="5197"></path><path d="M301.51 509.81m-36.06 0a36.06 36.06 0 1 0 72.12 0 36.06 36.06 0 1 0-72.12 0Z" fill="#1DCA5D" p-id="5198"></path><path d="M295.73 553.84c-27.48 0-49.84-22.36-49.84-49.84 0-11.08 3.56-21.57 10.3-30.34 2.69-3.5 7.71-4.16 11.22-1.47 3.5 2.69 4.16 7.71 1.47 11.22-4.57 5.95-6.99 13.07-6.99 20.59 0 18.66 15.18 33.84 33.84 33.84s33.84-15.18 33.84-33.84c0-18.11-14.15-32.95-32.22-33.8-4.41-0.21-7.82-3.95-7.62-8.37s3.93-7.83 8.37-7.62c26.62 1.25 47.47 23.11 47.47 49.78-0.01 27.49-22.36 49.85-49.84 49.85z" fill="" p-id="5199"></path><path d="M463.73 509.81m-36.06 0a36.06 36.06 0 1 0 72.12 0 36.06 36.06 0 1 0-72.12 0Z" fill="#1DCA5D" p-id="5200"></path><path d="M457.95 553.84c-27.48 0-49.84-22.36-49.84-49.84 0-11.08 3.56-21.57 10.3-30.34 2.69-3.5 7.71-4.16 11.22-1.47 3.5 2.69 4.16 7.71 1.47 11.22-4.57 5.95-6.99 13.07-6.99 20.59 0 18.66 15.18 33.84 33.84 33.84s33.84-15.18 33.84-33.84c0-18.11-14.15-32.95-32.22-33.8-4.41-0.21-7.82-3.95-7.62-8.37s3.93-7.83 8.37-7.62c26.62 1.25 47.47 23.11 47.47 49.78 0 27.49-22.36 49.85-49.84 49.85z" fill="" p-id="5201"></path><path d="M625.84 509.81m-36.06 0a36.06 36.06 0 1 0 72.12 0 36.06 36.06 0 1 0-72.12 0Z" fill="#1DCA5D" p-id="5202"></path><path d="M620.06 553.84c-27.48 0-49.84-22.36-49.84-49.84 0-11.08 3.56-21.57 10.3-30.34 2.69-3.5 7.71-4.16 11.22-1.47 3.5 2.69 4.16 7.71 1.47 11.22-4.57 5.95-6.99 13.07-6.99 20.59 0 18.66 15.18 33.84 33.84 33.84S653.9 522.66 653.9 504c0-18.11-14.15-32.95-32.22-33.8-4.41-0.21-7.82-3.95-7.62-8.37s3.93-7.83 8.37-7.62c26.62 1.25 47.47 23.11 47.47 49.78 0 27.49-22.36 49.85-49.84 49.85z" fill="" p-id="5203"></path><path d="M301.51 656.05m-36.06 0a36.06 36.06 0 1 0 72.12 0 36.06 36.06 0 1 0-72.12 0Z" fill="#1DCA5D" p-id="5204"></path><path d="M295.73 700.08c-27.48 0-49.84-22.36-49.84-49.84 0-11.08 3.56-21.57 10.3-30.34 2.69-3.5 7.71-4.16 11.22-1.47 3.5 2.69 4.16 7.71 1.47 11.22-4.57 5.95-6.99 13.07-6.99 20.59 0 18.66 15.18 33.84 33.84 33.84s33.84-15.18 33.84-33.84c0-18.11-14.15-32.95-32.22-33.8-4.41-0.21-7.82-3.95-7.62-8.37s3.93-7.83 8.37-7.62c26.62 1.25 47.47 23.11 47.47 49.78-0.01 27.5-22.36 49.85-49.84 49.85z" fill="" p-id="5205"></path><path d="M463.73 656.05m-36.06 0a36.06 36.06 0 1 0 72.12 0 36.06 36.06 0 1 0-72.12 0Z" fill="#1DCA5D" p-id="5206"></path><path d="M457.95 700.08c-27.48 0-49.84-22.36-49.84-49.84 0-11.08 3.56-21.57 10.3-30.34 2.69-3.5 7.71-4.16 11.22-1.47 3.5 2.69 4.16 7.71 1.47 11.22-4.57 5.95-6.99 13.07-6.99 20.59 0 18.66 15.18 33.84 33.84 33.84s33.84-15.18 33.84-33.84c0-18.11-14.15-32.95-32.22-33.8-4.41-0.21-7.82-3.95-7.62-8.37s3.93-7.83 8.37-7.62c26.62 1.25 47.47 23.11 47.47 49.78 0 27.5-22.36 49.85-49.84 49.85z" fill="" p-id="5207"></path><path d="M625.84 656.05m-36.06 0a36.06 36.06 0 1 0 72.12 0 36.06 36.06 0 1 0-72.12 0Z" fill="#1DCA5D" p-id="5208"></path><path d="M620.06 700.08c-27.48 0-49.84-22.36-49.84-49.84 0-11.08 3.56-21.57 10.3-30.34 2.69-3.5 7.71-4.16 11.22-1.47 3.5 2.69 4.16 7.71 1.47 11.22-4.57 5.95-6.99 13.07-6.99 20.59 0 18.66 15.18 33.84 33.84 33.84s33.84-15.18 33.84-33.84c0-18.11-14.15-32.95-32.22-33.8-4.41-0.21-7.82-3.95-7.62-8.37s3.93-7.83 8.37-7.62c26.62 1.25 47.47 23.11 47.47 49.78 0 27.5-22.36 49.85-49.84 49.85z" fill="" p-id="5209"></path><path d="M301.51 809.08m-36.06 0a36.06 36.06 0 1 0 72.12 0 36.06 36.06 0 1 0-72.12 0Z" fill="#1DCA5D" p-id="5210"></path><path d="M295.73 853.11c-27.48 0-49.84-22.36-49.84-49.84 0-11.08 3.56-21.57 10.3-30.34 2.69-3.5 7.71-4.16 11.22-1.47 3.5 2.69 4.16 7.71 1.47 11.22-4.57 5.95-6.99 13.07-6.99 20.59 0 18.66 15.18 33.84 33.84 33.84s33.84-15.18 33.84-33.84c0-18.11-14.15-32.95-32.22-33.8-4.41-0.21-7.82-3.95-7.62-8.37s3.93-7.83 8.37-7.62c26.62 1.25 47.47 23.11 47.47 49.78-0.01 27.49-22.36 49.85-49.84 49.85z" fill="" p-id="5211"></path><path d="M463.73 809.08m-36.06 0a36.06 36.06 0 1 0 72.12 0 36.06 36.06 0 1 0-72.12 0Z" fill="#1DCA5D" p-id="5212"></path><path d="M457.95 853.11c-27.48 0-49.84-22.36-49.84-49.84 0-11.08 3.56-21.57 10.3-30.34 2.69-3.5 7.71-4.16 11.22-1.47 3.5 2.69 4.16 7.71 1.47 11.22-4.57 5.95-6.99 13.07-6.99 20.59 0 18.66 15.18 33.84 33.84 33.84s33.84-15.18 33.84-33.84c0-18.11-14.15-32.95-32.22-33.8-4.41-0.21-7.82-3.95-7.62-8.37s3.93-7.83 8.37-7.62c26.62 1.25 47.47 23.11 47.47 49.78 0 27.49-22.36 49.85-49.84 49.85z" fill="" p-id="5213"></path><path d="M625.84 809.08m-36.06 0a36.06 36.06 0 1 0 72.12 0 36.06 36.06 0 1 0-72.12 0Z" fill="#1DCA5D" p-id="5214"></path><path d="M620.06 853.11c-27.48 0-49.84-22.36-49.84-49.84 0-11.08 3.56-21.57 10.3-30.34 2.69-3.5 7.71-4.16 11.22-1.47 3.5 2.69 4.16 7.71 1.47 11.22-4.57 5.95-6.99 13.07-6.99 20.59 0 18.66 15.18 33.84 33.84 33.84s33.84-15.18 33.84-33.84c0-18.11-14.15-32.95-32.22-33.8-4.41-0.21-7.82-3.95-7.62-8.37s3.93-7.83 8.37-7.62c26.62 1.25 47.47 23.11 47.47 49.78 0 27.49-22.36 49.85-49.84 49.85z" fill="" p-id="5215"></path></svg>